<svg width="1200" height="900" viewBox="0 0 1200 900" fill="none" xmlns="http://www.w3.org/2000/svg">
  <defs>
    <linearGradient id="bg" x1="0" y1="0" x2="1200" y2="900" gradientUnits="userSpaceOnUse">
      <stop stop-color="#0B1220"/>
      <stop offset="1" stop-color="#071018"/>
    </linearGradient>
    <linearGradient id="accent" x1="220" y1="140" x2="1020" y2="760" gradientUnits="userSpaceOnUse">
      <stop stop-color="#22C55E" stop-opacity="0.35"/>
      <stop offset="1" stop-color="#60A5FA" stop-opacity="0.18"/>
    </linearGradient>
    <filter id="shadow" x="-20" y="-20" width="1240" height="940" filterUnits="userSpaceOnUse" color-interpolation-filters="sRGB">
      <feDropShadow dx="0" dy="18" stdDeviation="20" flood-color="#000" flood-opacity="0.45"/>
    </filter>
    <filter id="glow" x="-50" y="-50" width="1300" height="1000" filterUnits="userSpaceOnUse" color-interpolation-filters="sRGB">
      <feGaussianBlur stdDeviation="24" result="blur"/>
      <feColorMatrix in="blur" type="matrix" values="1 0 0 0 0  0 1 0 0 0  0 0 1 0 0  0 0 0 0.7 0"/>
      <feMerge>
        <feMergeNode/>
        <feMergeNode in="SourceGraphic"/>
      </feMerge>
    </filter>
  </defs>

  <rect width="1200" height="900" rx="44" fill="url(#bg)"/>
  <path d="M160 180C210 120 360 90 470 140C580 190 670 140 770 130C880 120 990 180 1040 260C1090 340 1040 450 980 520C920 590 820 640 740 630C660 620 590 690 500 730C410 770 260 770 190 690C120 610 110 460 130 360C150 260 110 240 160 180Z" fill="url(#accent)" opacity="0.85" filter="url(#glow)"/>

  <!-- App frame -->
  <g filter="url(#shadow)">
    <rect x="110" y="120" width="980" height="660" rx="28" fill="#0B0F14" stroke="#1F2937" stroke-width="2"/>
    <rect x="110" y="120" width="980" height="56" rx="28" fill="#0E1623"/>
    <circle cx="150" cy="148" r="7" fill="#EF4444"/>
    <circle cx="175" cy="148" r="7" fill="#F59E0B"/>
    <circle cx="200" cy="148" r="7" fill="#22C55E"/>

    <!-- Sidebar -->
    <rect x="130" y="190" width="250" height="570" rx="18" fill="#0C131D" stroke="#1F2937"/>
    <rect x="152" y="214" width="206" height="18" rx="9" fill="#111827"/>
    <rect x="152" y="246" width="170" height="10" rx="5" fill="#1F2937"/>
    <rect x="152" y="266" width="190" height="10" rx="5" fill="#1F2937"/>
    <rect x="152" y="308" width="206" height="44" rx="14" fill="#0F1B2B" stroke="#23324A"/>
    <rect x="164" y="324" width="86" height="12" rx="6" fill="#22C55E" fill-opacity="0.85"/>
    <rect x="164" y="342" width="140" height="10" rx="5" fill="#334155"/>
    <rect x="152" y="372" width="206" height="10" rx="5" fill="#1F2937"/>
    <rect x="152" y="392" width="190" height="10" rx="5" fill="#1F2937"/>
    <rect x="152" y="412" width="206" height="10" rx="5" fill="#1F2937"/>

    <!-- Main -->
    <rect x="404" y="190" width="666" height="570" rx="18" fill="#0B1220" stroke="#1F2937"/>
    <rect x="430" y="216" width="360" height="28" rx="14" fill="#0F172A" stroke="#1F2937"/>
    <rect x="442" y="224" width="84" height="12" rx="6" fill="#60A5FA" fill-opacity="0.9"/>
    <rect x="430" y="260" width="610" height="12" rx="6" fill="#1F2937"/>
    <rect x="430" y="284" width="560" height="12" rx="6" fill="#1F2937"/>

    <!-- Widgets row -->
    <rect x="430" y="324" width="190" height="120" rx="16" fill="#0C1627" stroke="#20324C"/>
    <rect x="446" y="344" width="110" height="12" rx="6" fill="#22C55E" fill-opacity="0.9"/>
    <rect x="446" y="370" width="150" height="10" rx="5" fill="#334155"/>
    <rect x="446" y="392" width="130" height="10" rx="5" fill="#334155"/>
    <rect x="446" y="414" width="90" height="10" rx="5" fill="#334155"/>

    <rect x="635" y="324" width="190" height="120" rx="16" fill="#0C1627" stroke="#20324C"/>
    <rect x="651" y="344" width="92" height="12" rx="6" fill="#F59E0B" fill-opacity="0.95"/>
    <rect x="651" y="372" width="158" height="8" rx="4" fill="#1F2937"/>
    <rect x="651" y="388" width="140" height="8" rx="4" fill="#1F2937"/>
    <rect x="651" y="404" width="120" height="8" rx="4" fill="#1F2937"/>
    <rect x="651" y="420" width="100" height="8" rx="4" fill="#1F2937"/>

    <rect x="840" y="324" width="200" height="120" rx="16" fill="#0C1627" stroke="#20324C"/>
    <rect x="856" y="344" width="116" height="12" rx="6" fill="#A78BFA" fill-opacity="0.95"/>
    <path d="M856 430C882 404 902 416 920 392C938 368 958 372 976 352C994 332 1010 344 1028 330" stroke="#60A5FA" stroke-width="4" stroke-linecap="round"/>
    <path d="M856 438C884 410 904 430 922 404C940 378 960 392 980 370C1000 348 1014 362 1028 346" stroke="#22C55E" stroke-opacity="0.9" stroke-width="4" stroke-linecap="round"/>

    <!-- Table -->
    <rect x="430" y="470" width="610" height="260" rx="16" fill="#0C131D" stroke="#1F2937"/>
    <rect x="430" y="470" width="610" height="44" rx="16" fill="#0E1623"/>
    <rect x="448" y="486" width="120" height="12" rx="6" fill="#60A5FA" fill-opacity="0.85"/>
    <rect x="580" y="486" width="96" height="12" rx="6" fill="#94A3B8" fill-opacity="0.6"/>
    <rect x="690" y="486" width="96" height="12" rx="6" fill="#94A3B8" fill-opacity="0.6"/>
    <rect x="800" y="486" width="96" height="12" rx="6" fill="#94A3B8" fill-opacity="0.6"/>

    <rect x="448" y="534" width="568" height="12" rx="6" fill="#1F2937"/>
    <rect x="448" y="566" width="520" height="12" rx="6" fill="#1F2937"/>
    <rect x="448" y="598" width="548" height="12" rx="6" fill="#1F2937"/>
    <rect x="448" y="630" width="504" height="12" rx="6" fill="#1F2937"/>
    <rect x="448" y="662" width="540" height="12" rx="6" fill="#1F2937"/>
  </g>

  <!-- Caption -->
  <text x="150" y="850" fill="#94A3B8" font-family="ui-sans-serif, system-ui, -apple-system" font-size="26" letter-spacing="0.5">
    NeoNotion  Productivity Dashboard (Preview)
  </text>
</svg>
