<svg width="1200" height="900" viewBox="0 0 1200 900" fill="none" xmlns="http://www.w3.org/2000/svg">
  <defs>
    <linearGradient id="bg" x1="0" y1="0" x2="1200" y2="900" gradientUnits="userSpaceOnUse">
      <stop stop-color="#090D14"/>
      <stop offset="1" stop-color="#05070B"/>
    </linearGradient>
    <linearGradient id="accent" x1="160" y1="160" x2="1040" y2="760" gradientUnits="userSpaceOnUse">
      <stop stop-color="#F59E0B" stop-opacity="0.22"/>
      <stop offset="0.55" stop-color="#60A5FA" stop-opacity="0.22"/>
      <stop offset="1" stop-color="#22C55E" stop-opacity="0.14"/>
    </linearGradient>
    <filter id="shadow" x="-20" y="-20" width="1240" height="940" filterUnits="userSpaceOnUse" color-interpolation-filters="sRGB">
      <feDropShadow dx="0" dy="18" stdDeviation="20" flood-color="#000" flood-opacity="0.45"/>
    </filter>
  </defs>

  <rect width="1200" height="900" rx="44" fill="url(#bg)"/>
  <path d="M210 210C280 120 440 90 560 140C680 190 750 150 850 140C950 130 1030 200 1060 290C1090 380 1040 470 990 530C940 590 860 620 800 690C740 760 640 780 520 760C400 740 350 680 280 620C210 560 150 470 150 370C150 270 160 270 210 210Z" fill="url(#accent)" opacity="0.9"/>

  <g filter="url(#shadow)">
    <rect x="110" y="120" width="980" height="660" rx="28" fill="#0B0F14" stroke="#1F2937" stroke-width="2"/>
    <rect x="110" y="120" width="980" height="56" rx="28" fill="#0E1623"/>
    <circle cx="150" cy="148" r="7" fill="#EF4444"/>
    <circle cx="175" cy="148" r="7" fill="#F59E0B"/>
    <circle cx="200" cy="148" r="7" fill="#22C55E"/>

    <!-- CRM board -->
    <rect x="130" y="190" width="940" height="570" rx="18" fill="#0B1220" stroke="#1F2937"/>
    <rect x="156" y="216" width="320" height="28" rx="14" fill="#0F172A" stroke="#1F2937"/>
    <rect x="168" y="224" width="140" height="12" rx="6" fill="#F59E0B" fill-opacity="0.95"/>
    <rect x="500" y="222" width="170" height="16" rx="8" fill="#0F1B2B" stroke="#23324A"/>
    <rect x="680" y="222" width="150" height="16" rx="8" fill="#0F1B2B" stroke="#23324A"/>
    <rect x="840" y="222" width="204" height="16" rx="8" fill="#0F1B2B" stroke="#23324A"/>

    <!-- Columns -->
    <rect x="156" y="270" width="290" height="470" rx="16" fill="#0C131D" stroke="#1F2937"/>
    <rect x="176" y="290" width="120" height="12" rx="6" fill="#60A5FA" fill-opacity="0.9"/>
    <rect x="176" y="320" width="250" height="78" rx="14" fill="#0F1B2B" stroke="#23324A"/>
    <rect x="190" y="340" width="132" height="10" rx="5" fill="#94A3B8" fill-opacity="0.8"/>
    <rect x="190" y="360" width="178" height="10" rx="5" fill="#334155"/>
    <rect x="176" y="410" width="250" height="78" rx="14" fill="#0F1B2B" stroke="#23324A"/>
    <rect x="190" y="430" width="144" height="10" rx="5" fill="#94A3B8" fill-opacity="0.8"/>
    <rect x="190" y="450" width="170" height="10" rx="5" fill="#334155"/>
    <rect x="176" y="500" width="250" height="78" rx="14" fill="#0F1B2B" stroke="#23324A"/>
    <rect x="190" y="520" width="112" height="10" rx="5" fill="#94A3B8" fill-opacity="0.8"/>
    <rect x="190" y="540" width="186" height="10" rx="5" fill="#334155"/>

    <rect x="470" y="270" width="290" height="470" rx="16" fill="#0C131D" stroke="#1F2937"/>
    <rect x="490" y="290" width="132" height="12" rx="6" fill="#22C55E" fill-opacity="0.9"/>
    <rect x="490" y="320" width="250" height="92" rx="14" fill="#0F1B2B" stroke="#23324A"/>
    <rect x="504" y="344" width="160" height="10" rx="5" fill="#94A3B8" fill-opacity="0.8"/>
    <rect x="504" y="366" width="200" height="10" rx="5" fill="#334155"/>
    <rect x="490" y="424" width="250" height="92" rx="14" fill="#0F1B2B" stroke="#23324A"/>
    <rect x="504" y="448" width="148" height="10" rx="5" fill="#94A3B8" fill-opacity="0.8"/>
    <rect x="504" y="470" width="186" height="10" rx="5" fill="#334155"/>
    <rect x="490" y="528" width="250" height="92" rx="14" fill="#0F1B2B" stroke="#23324A"/>
    <rect x="504" y="552" width="170" height="10" rx="5" fill="#94A3B8" fill-opacity="0.8"/>
    <rect x="504" y="574" width="196" height="10" rx="5" fill="#334155"/>

    <rect x="784" y="270" width="266" height="470" rx="16" fill="#0C131D" stroke="#1F2937"/>
    <rect x="804" y="290" width="150" height="12" rx="6" fill="#A78BFA" fill-opacity="0.95"/>
    <rect x="804" y="320" width="226" height="120" rx="14" fill="#0F1B2B" stroke="#23324A"/>
    <rect x="818" y="350" width="160" height="10" rx="5" fill="#94A3B8" fill-opacity="0.8"/>
    <rect x="818" y="372" width="190" height="10" rx="5" fill="#334155"/>
    <rect x="818" y="394" width="130" height="10" rx="5" fill="#334155"/>
    <rect x="804" y="452" width="226" height="120" rx="14" fill="#0F1B2B" stroke="#23324A"/>
    <rect x="818" y="482" width="140" height="10" rx="5" fill="#94A3B8" fill-opacity="0.8"/>
    <rect x="818" y="504" width="184" height="10" rx="5" fill="#334155"/>
    <rect x="818" y="526" width="150" height="10" rx="5" fill="#334155"/>
    <rect x="804" y="584" width="226" height="140" rx="14" fill="#0F1B2B" stroke="#23324A"/>
    <rect x="818" y="618" width="174" height="10" rx="5" fill="#94A3B8" fill-opacity="0.8"/>
    <rect x="818" y="640" width="196" height="10" rx="5" fill="#334155"/>
    <rect x="818" y="662" width="140" height="10" rx="5" fill="#334155"/>
  </g>

  <text x="150" y="850" fill="#94A3B8" font-family="ui-sans-serif, system-ui, -apple-system" font-size="26" letter-spacing="0.5">
    NeoNotion  Business CRM (Preview)
  </text>
</svg>
